<svg xmlns="http://www.w3.org/2000/svg" xmlns:xlink="http://www.w3.org/1999/xlink" width="60" zoomAndPan="magnify" viewBox="0 0 45 44.999999" height="60" preserveAspectRatio="xMidYMid meet" version="1.0"><defs><clipPath id="5216df7e80"><path d="M 0.226562 2 L 21 2 L 21 20 L 0.226562 20 Z M 0.226562 2 " clip-rule="nonzero"/></clipPath></defs><path fill="#2e3192" d="M 35.023438 34.195312 C 34.746094 33.996094 34.414062 33.824219 34.050781 33.671875 C 34.777344 32.90625 35.398438 32.027344 36.101562 31.230469 C 38.472656 31.351562 39.875 32.375 39.40625 34.453125 C 38.851562 34.957031 38.347656 35.519531 37.796875 36.035156 C 37.289062 36.511719 36.734375 36.90625 36.175781 37.308594 C 36.53125 36.222656 36.308594 35.105469 35.023438 34.195312 " fill-opacity="1" fill-rule="nonzero"/><path fill="#2e3192" d="M 35.332031 6.285156 C 34.988281 5.894531 34.582031 5.582031 34.183594 5.253906 C 33.96875 5.082031 33.773438 4.890625 33.542969 4.738281 C 33.34375 4.609375 33.148438 4.484375 32.964844 4.332031 C 32.9375 4.308594 32.917969 4.28125 32.90625 4.257812 C 32.640625 4.097656 32.382812 3.945312 32.15625 3.808594 C 28.613281 1.964844 23.152344 2.578125 18.117188 3.953125 C 18.269531 4.257812 18.410156 4.570312 18.515625 4.894531 C 18.589844 5.125 18.636719 5.355469 18.664062 5.585938 C 24.710938 4.503906 31.25 4.203125 35.535156 6.511719 C 35.464844 6.4375 35.398438 6.363281 35.332031 6.285156 " fill-opacity="1" fill-rule="nonzero"/><path fill="#2e3192" d="M 42.285156 17.09375 C 42.179688 16.507812 42.074219 15.921875 41.929688 15.34375 C 41.804688 14.839844 41.582031 14.375 41.414062 13.886719 C 41.339844 13.84375 41.292969 13.761719 41.320312 13.660156 C 41.238281 13.476562 41.148438 13.277344 41.046875 13.0625 C 39.09375 9.214844 33.152344 8.566406 26.355469 9.628906 C 26.089844 10.90625 25.65625 12.136719 25.226562 13.371094 C 36.601562 12.390625 40.875 15.1875 42.433594 17.816406 C 42.378906 17.574219 42.328125 17.335938 42.285156 17.09375 " fill-opacity="1" fill-rule="nonzero"/><path fill="#2e3192" d="M 42.601562 28.308594 C 42.679688 28.015625 42.808594 27.71875 42.851562 27.417969 C 42.878906 27.210938 42.886719 27.023438 43.003906 26.855469 C 43.074219 26.488281 43.136719 26.125 43.191406 25.808594 C 43.6875 20.945312 39.425781 19.253906 33.433594 19.511719 C 33.363281 19.714844 33.285156 19.914062 33.199219 20.117188 C 32.59375 21.550781 31.71875 22.839844 30.878906 24.144531 C 38.925781 23.964844 42.539062 26.230469 41.648438 30.929688 C 41.75 30.722656 41.847656 30.515625 41.9375 30.304688 C 41.949219 30.277344 41.960938 30.257812 41.976562 30.238281 C 42.152344 29.585938 42.421875 28.964844 42.601562 28.308594 " fill-opacity="1" fill-rule="nonzero"/><path fill="#00adef" d="M 2.273438 12.363281 C 7.527344 10.613281 11.523438 4.261719 9.285156 4.996094 C 3.578125 6.863281 2.273438 12.363281 2.226562 12.375 C 2.242188 12.371094 2.261719 12.367188 2.273438 12.363281 " fill-opacity="1" fill-rule="nonzero"/><g clip-path="url(#5216df7e80)"><path fill="#00adef" d="M 15.265625 4.523438 C 15.082031 3.515625 13.882812 3.410156 12.132812 4.242188 C 12.933594 3.445312 14.304688 2.859375 15.328125 2.574219 C 19.082031 1.53125 21.796875 2.878906 19.636719 6.875 C 16.21875 13.199219 5.699219 19.21875 0.226562 19.921875 C 0.226562 19.921875 15.355469 7.910156 15.265625 4.523438 " fill-opacity="1" fill-rule="nonzero"/></g><path fill="#00adef" d="M 1.550781 31 C 7.476562 30.582031 29.457031 17.625 30.5625 6.898438 C 31.011719 2.542969 26.832031 1.667969 25.449219 1.429688 C 24.960938 1.34375 24.304688 1.25 23.8125 1.199219 C 18.695312 0.691406 14.933594 2.160156 14.933594 2.160156 C 18.839844 1.269531 27.265625 0 24.089844 7.414062 C 20.203125 15.53125 1.550781 31 1.550781 31 " fill-opacity="1" fill-rule="nonzero"/><path fill="#00adef" d="M 8.320312 40.097656 C 14.351562 40.589844 43.761719 21.308594 38.640625 9.691406 C 38.496094 9.363281 38.253906 8.816406 37.527344 7.996094 C 37.527344 7.996094 36.871094 7.320312 36.644531 7.101562 C 35.046875 5.589844 34.929688 5.589844 33.878906 4.867188 C 33.367188 4.542969 32.6875 4.105469 32.15625 3.808594 C 34.347656 5.199219 36.003906 7.273438 33.296875 12.996094 C 27.683594 23.730469 8.320312 40.097656 8.320312 40.097656 " fill-opacity="1" fill-rule="nonzero"/><path fill="#00adef" d="M 40.167969 20.925781 C 41.261719 18.597656 42.320312 15.875 41.046875 13.0625 C 41.992188 15.078125 42.1875 15.53125 42.71875 17.527344 C 42.914062 18.261719 43.066406 19.273438 43.199219 20.023438 C 44.472656 30.042969 25.023438 43.144531 18.28125 44.464844 C 18.28125 44.464844 36.175781 28.5 40.167969 20.925781 " fill-opacity="1" fill-rule="nonzero"/><path fill="#00adef" d="M 33.429688 41.625 C 36.914062 39.230469 38.726562 37.097656 40.65625 33.5 C 40.960938 32.9375 41.332031 32.164062 41.59375 31.582031 C 42.316406 29.71875 42.390625 29.523438 42.746094 28.144531 C 42.890625 27.445312 43.082031 26.515625 43.191406 25.808594 C 42.925781 27.125 42.835938 27.570312 41.960938 29.324219 C 37.242188 37.660156 29.824219 43.304688 25.746094 44.363281 C 25.746094 44.363281 28.523438 45 33.429688 41.625 " fill-opacity="1" fill-rule="nonzero"/></svg>