<svg xmlns="http://www.w3.org/2000/svg" xmlns:xlink="http://www.w3.org/1999/xlink" width="230" zoomAndPan="magnify" viewBox="0 0 172.5 44.999999" height="60" preserveAspectRatio="xMidYMid meet" version="1.0"><defs><g/><clipPath id="5f54b19d95"><path d="M 1.585938 4 L 21 4 L 21 21 L 1.585938 21 Z M 1.585938 4 " clip-rule="nonzero"/></clipPath></defs><path fill="#2e3192" d="M 33.347656 33.246094 C 33.09375 33.066406 32.789062 32.90625 32.457031 32.769531 C 33.121094 32.070312 33.6875 31.265625 34.332031 30.535156 C 36.492188 30.648438 37.773438 31.582031 37.34375 33.484375 C 36.839844 33.945312 36.378906 34.457031 35.878906 34.929688 C 35.414062 35.363281 34.90625 35.726562 34.398438 36.09375 C 34.722656 35.101562 34.515625 34.078125 33.347656 33.246094 " fill-opacity="1" fill-rule="nonzero"/><path fill="#2e3192" d="M 33.625 7.738281 C 33.3125 7.382812 32.945312 7.09375 32.578125 6.796875 C 32.386719 6.636719 32.203125 6.460938 31.996094 6.324219 C 31.8125 6.207031 31.632812 6.09375 31.46875 5.953125 C 31.441406 5.929688 31.425781 5.90625 31.410156 5.882812 C 31.171875 5.738281 30.9375 5.597656 30.730469 5.472656 C 27.496094 3.789062 22.511719 4.347656 17.917969 5.605469 C 18.054688 5.886719 18.183594 6.171875 18.28125 6.46875 C 18.347656 6.679688 18.390625 6.886719 18.414062 7.101562 C 23.933594 6.109375 29.902344 5.835938 33.8125 7.945312 C 33.75 7.878906 33.6875 7.808594 33.625 7.738281 " fill-opacity="1" fill-rule="nonzero"/><path fill="#2e3192" d="M 39.972656 17.617188 C 39.878906 17.082031 39.78125 16.546875 39.648438 16.019531 C 39.535156 15.554688 39.332031 15.132812 39.179688 14.6875 C 39.109375 14.644531 39.066406 14.570312 39.09375 14.476562 C 39.015625 14.308594 38.933594 14.128906 38.84375 13.933594 C 37.058594 10.414062 31.636719 9.820312 25.433594 10.792969 C 25.191406 11.964844 24.796875 13.085938 24.40625 14.214844 C 34.789062 13.316406 38.6875 15.875 40.109375 18.277344 C 40.058594 18.058594 40.011719 17.835938 39.972656 17.617188 " fill-opacity="1" fill-rule="nonzero"/><path fill="#2e3192" d="M 40.261719 27.867188 C 40.332031 27.601562 40.449219 27.328125 40.488281 27.054688 C 40.515625 26.863281 40.523438 26.691406 40.628906 26.539062 C 40.691406 26.203125 40.75 25.871094 40.800781 25.582031 C 41.253906 21.136719 37.363281 19.59375 31.894531 19.824219 C 31.828125 20.011719 31.757812 20.195312 31.679688 20.378906 C 31.125 21.691406 30.328125 22.867188 29.5625 24.0625 C 36.910156 23.898438 40.203125 25.964844 39.390625 30.261719 C 39.484375 30.074219 39.574219 29.882812 39.65625 29.691406 C 39.667969 29.667969 39.675781 29.648438 39.691406 29.632812 C 39.851562 29.035156 40.097656 28.464844 40.261719 27.867188 " fill-opacity="1" fill-rule="nonzero"/><path fill="#00adef" d="M 3.457031 13.292969 C 8.253906 11.691406 11.898438 5.890625 9.855469 6.558594 C 4.644531 8.265625 3.457031 13.292969 3.414062 13.304688 C 3.425781 13.300781 3.445312 13.296875 3.457031 13.292969 " fill-opacity="1" fill-rule="nonzero"/><g clip-path="url(#5f54b19d95)"><path fill="#00adef" d="M 15.3125 6.125 C 15.144531 5.207031 14.050781 5.109375 12.457031 5.871094 C 13.183594 5.144531 14.4375 4.605469 15.367188 4.347656 C 18.796875 3.394531 21.273438 4.625 19.304688 8.277344 C 16.183594 14.058594 6.582031 19.558594 1.585938 20.203125 C 1.585938 20.203125 15.394531 9.222656 15.3125 6.125 " fill-opacity="1" fill-rule="nonzero"/></g><path fill="#00adef" d="M 2.796875 30.328125 C 8.203125 29.945312 28.265625 18.101562 29.273438 8.296875 C 29.683594 4.316406 25.871094 3.515625 24.609375 3.300781 C 24.160156 3.222656 23.5625 3.136719 23.113281 3.089844 C 18.441406 2.625 15.007812 3.96875 15.007812 3.96875 C 18.574219 3.152344 26.265625 1.996094 23.367188 8.769531 C 19.820312 16.1875 2.796875 30.328125 2.796875 30.328125 " fill-opacity="1" fill-rule="nonzero"/><path fill="#00adef" d="M 8.972656 38.640625 C 14.480469 39.09375 41.320312 21.46875 36.648438 10.851562 C 36.515625 10.550781 36.296875 10.050781 35.632812 9.304688 C 35.632812 9.304688 35.035156 8.683594 34.824219 8.484375 C 33.367188 7.101562 33.261719 7.101562 32.300781 6.441406 C 31.832031 6.148438 31.210938 5.746094 30.730469 5.472656 C 32.730469 6.742188 34.242188 8.640625 31.769531 13.875 C 26.648438 23.683594 8.972656 38.640625 8.972656 38.640625 " fill-opacity="1" fill-rule="nonzero"/><path fill="#00adef" d="M 38.039062 21.121094 C 39.039062 18.988281 40.003906 16.503906 38.84375 13.933594 C 39.703125 15.773438 39.886719 16.1875 40.367188 18.011719 C 40.546875 18.6875 40.6875 19.609375 40.804688 20.296875 C 41.96875 29.449219 24.21875 41.425781 18.066406 42.632812 C 18.066406 42.632812 34.398438 28.042969 38.039062 21.121094 " fill-opacity="1" fill-rule="nonzero"/><path fill="#00adef" d="M 31.890625 40.039062 C 35.070312 37.847656 36.726562 35.902344 38.488281 32.613281 C 38.761719 32.097656 39.105469 31.394531 39.34375 30.859375 C 40 29.15625 40.070312 28.976562 40.394531 27.71875 C 40.527344 27.078125 40.703125 26.226562 40.800781 25.582031 C 40.554688 26.785156 40.472656 27.191406 39.675781 28.796875 C 35.371094 36.414062 28.597656 41.574219 24.878906 42.539062 C 24.878906 42.539062 27.414062 43.125 31.890625 40.039062 " fill-opacity="1" fill-rule="nonzero"/><g fill="#ffffff" fill-opacity="1"><g transform="translate(47.432423, 21.455278)"><g><path d="M 8.328125 -7.40625 C 7.765625 -7.738281 7.160156 -8.007812 6.515625 -8.21875 C 5.878906 -8.4375 5.347656 -8.546875 4.921875 -8.546875 C 4.578125 -8.546875 4.304688 -8.484375 4.109375 -8.359375 C 3.910156 -8.234375 3.8125 -8.046875 3.8125 -7.796875 C 3.8125 -7.566406 3.894531 -7.375 4.0625 -7.21875 C 4.238281 -7.0625 4.453125 -6.9375 4.703125 -6.84375 C 4.953125 -6.75 5.328125 -6.625 5.828125 -6.46875 C 6.554688 -6.257812 7.160156 -6.046875 7.640625 -5.828125 C 8.117188 -5.617188 8.53125 -5.296875 8.875 -4.859375 C 9.21875 -4.421875 9.390625 -3.847656 9.390625 -3.140625 C 9.390625 -2.441406 9.203125 -1.84375 8.828125 -1.34375 C 8.453125 -0.84375 7.941406 -0.460938 7.296875 -0.203125 C 6.648438 0.046875 5.925781 0.171875 5.125 0.171875 C 4.25 0.171875 3.375 0.0195312 2.5 -0.28125 C 1.625 -0.59375 0.867188 -1.019531 0.234375 -1.5625 L 1.3125 -3.71875 C 1.851562 -3.25 2.488281 -2.863281 3.21875 -2.5625 C 3.945312 -2.257812 4.59375 -2.109375 5.15625 -2.109375 C 5.570312 -2.109375 5.894531 -2.179688 6.125 -2.328125 C 6.363281 -2.484375 6.484375 -2.707031 6.484375 -3 C 6.484375 -3.238281 6.394531 -3.4375 6.21875 -3.59375 C 6.039062 -3.757812 5.816406 -3.890625 5.546875 -3.984375 C 5.285156 -4.078125 4.914062 -4.191406 4.4375 -4.328125 C 3.707031 -4.523438 3.101562 -4.726562 2.625 -4.9375 C 2.15625 -5.144531 1.75 -5.457031 1.40625 -5.875 C 1.070312 -6.289062 0.90625 -6.847656 0.90625 -7.546875 C 0.90625 -8.203125 1.078125 -8.773438 1.421875 -9.265625 C 1.773438 -9.765625 2.269531 -10.144531 2.90625 -10.40625 C 3.550781 -10.675781 4.296875 -10.8125 5.140625 -10.8125 C 5.910156 -10.8125 6.664062 -10.703125 7.40625 -10.484375 C 8.15625 -10.265625 8.8125 -9.976562 9.375 -9.625 Z M 8.328125 -7.40625 "/></g></g></g><g fill="#ffffff" fill-opacity="1"><g transform="translate(57.198212, 21.455278)"><g><path d="M 6.078125 -10.765625 C 7.160156 -10.765625 8.132812 -10.523438 9 -10.046875 C 9.875 -9.578125 10.5625 -8.925781 11.0625 -8.09375 C 11.5625 -7.269531 11.8125 -6.347656 11.8125 -5.328125 C 11.8125 -4.285156 11.5625 -3.34375 11.0625 -2.5 C 10.5625 -1.664062 9.875 -1.003906 9 -0.515625 C 8.132812 -0.0351562 7.160156 0.203125 6.078125 0.203125 C 5.003906 0.203125 4.03125 -0.0351562 3.15625 -0.515625 C 2.28125 -0.992188 1.59375 -1.65625 1.09375 -2.5 C 0.59375 -3.34375 0.34375 -4.285156 0.34375 -5.328125 C 0.34375 -6.347656 0.59375 -7.269531 1.09375 -8.09375 C 1.59375 -8.925781 2.28125 -9.578125 3.15625 -10.046875 C 4.03125 -10.523438 5.003906 -10.765625 6.078125 -10.765625 Z M 6.109375 -8.421875 C 5.585938 -8.421875 5.101562 -8.285156 4.65625 -8.015625 C 4.207031 -7.742188 3.847656 -7.367188 3.578125 -6.890625 C 3.316406 -6.410156 3.1875 -5.882812 3.1875 -5.3125 C 3.1875 -4.726562 3.320312 -4.195312 3.59375 -3.71875 C 3.863281 -3.238281 4.21875 -2.859375 4.65625 -2.578125 C 5.101562 -2.296875 5.585938 -2.15625 6.109375 -2.15625 C 6.628906 -2.15625 7.109375 -2.296875 7.546875 -2.578125 C 7.992188 -2.859375 8.34375 -3.238281 8.59375 -3.71875 C 8.84375 -4.195312 8.96875 -4.726562 8.96875 -5.3125 C 8.96875 -5.882812 8.84375 -6.410156 8.59375 -6.890625 C 8.34375 -7.367188 7.992188 -7.742188 7.546875 -8.015625 C 7.109375 -8.285156 6.628906 -8.421875 6.109375 -8.421875 Z M 6.109375 -8.421875 "/></g></g></g><g fill="#ffffff" fill-opacity="1"><g transform="translate(69.352539, 21.455278)"><g><path d="M 8.703125 -7 C 8.359375 -7.4375 7.945312 -7.78125 7.46875 -8.03125 C 7 -8.289062 6.53125 -8.421875 6.0625 -8.421875 C 5.53125 -8.421875 5.046875 -8.285156 4.609375 -8.015625 C 4.171875 -7.753906 3.820312 -7.390625 3.5625 -6.921875 C 3.3125 -6.453125 3.1875 -5.929688 3.1875 -5.359375 C 3.1875 -4.773438 3.3125 -4.25 3.5625 -3.78125 C 3.820312 -3.3125 4.171875 -2.941406 4.609375 -2.671875 C 5.046875 -2.410156 5.53125 -2.28125 6.0625 -2.28125 C 6.5 -2.28125 6.953125 -2.390625 7.421875 -2.609375 C 7.898438 -2.835938 8.328125 -3.144531 8.703125 -3.53125 L 10.3125 -1.78125 C 9.738281 -1.175781 9.054688 -0.691406 8.265625 -0.328125 C 7.472656 0.0234375 6.6875 0.203125 5.90625 0.203125 C 4.863281 0.203125 3.914062 -0.0351562 3.0625 -0.515625 C 2.21875 -1.003906 1.550781 -1.664062 1.0625 -2.5 C 0.582031 -3.34375 0.34375 -4.285156 0.34375 -5.328125 C 0.34375 -6.347656 0.585938 -7.269531 1.078125 -8.09375 C 1.578125 -8.925781 2.257812 -9.578125 3.125 -10.046875 C 3.988281 -10.523438 4.953125 -10.765625 6.015625 -10.765625 C 6.804688 -10.765625 7.582031 -10.597656 8.34375 -10.265625 C 9.113281 -9.941406 9.765625 -9.5 10.296875 -8.9375 Z M 8.703125 -7 "/></g></g></g><g fill="#ffffff" fill-opacity="1"><g transform="translate(79.813725, 21.455278)"><g><path d="M 1.03125 0 L 1.03125 -10.609375 L 3.796875 -10.609375 L 3.796875 0 Z M 1.03125 0 "/></g></g></g><g fill="#ffffff" fill-opacity="1"><g transform="translate(84.636155, 21.455278)"><g><path d="M 11.765625 0 L 8.8125 0 L 8.09375 -1.875 L 3.515625 -1.875 L 2.765625 0 L -0.078125 0 L 4.484375 -10.609375 L 7.328125 -10.609375 Z M 5.828125 -7.78125 L 4.34375 -4 L 7.28125 -4 Z M 5.828125 -7.78125 "/></g></g></g><g fill="#ffffff" fill-opacity="1"><g transform="translate(96.321848, 21.455278)"><g><path d="M 1.03125 0 L 1.03125 -10.609375 L 3.796875 -10.609375 L 3.796875 -2.359375 L 8.28125 -2.359375 L 8.28125 0 Z M 1.03125 0 "/></g></g></g><g fill="#ffffff" fill-opacity="1"><g transform="translate(104.832904, 21.455278)"><g><path d="M 8.328125 -7.40625 C 7.765625 -7.738281 7.160156 -8.007812 6.515625 -8.21875 C 5.878906 -8.4375 5.347656 -8.546875 4.921875 -8.546875 C 4.578125 -8.546875 4.304688 -8.484375 4.109375 -8.359375 C 3.910156 -8.234375 3.8125 -8.046875 3.8125 -7.796875 C 3.8125 -7.566406 3.894531 -7.375 4.0625 -7.21875 C 4.238281 -7.0625 4.453125 -6.9375 4.703125 -6.84375 C 4.953125 -6.75 5.328125 -6.625 5.828125 -6.46875 C 6.554688 -6.257812 7.160156 -6.046875 7.640625 -5.828125 C 8.117188 -5.617188 8.53125 -5.296875 8.875 -4.859375 C 9.21875 -4.421875 9.390625 -3.847656 9.390625 -3.140625 C 9.390625 -2.441406 9.203125 -1.84375 8.828125 -1.34375 C 8.453125 -0.84375 7.941406 -0.460938 7.296875 -0.203125 C 6.648438 0.046875 5.925781 0.171875 5.125 0.171875 C 4.25 0.171875 3.375 0.0195312 2.5 -0.28125 C 1.625 -0.59375 0.867188 -1.019531 0.234375 -1.5625 L 1.3125 -3.71875 C 1.851562 -3.25 2.488281 -2.863281 3.21875 -2.5625 C 3.945312 -2.257812 4.59375 -2.109375 5.15625 -2.109375 C 5.570312 -2.109375 5.894531 -2.179688 6.125 -2.328125 C 6.363281 -2.484375 6.484375 -2.707031 6.484375 -3 C 6.484375 -3.238281 6.394531 -3.4375 6.21875 -3.59375 C 6.039062 -3.757812 5.816406 -3.890625 5.546875 -3.984375 C 5.285156 -4.078125 4.914062 -4.191406 4.4375 -4.328125 C 3.707031 -4.523438 3.101562 -4.726562 2.625 -4.9375 C 2.15625 -5.144531 1.75 -5.457031 1.40625 -5.875 C 1.070312 -6.289062 0.90625 -6.847656 0.90625 -7.546875 C 0.90625 -8.203125 1.078125 -8.773438 1.421875 -9.265625 C 1.773438 -9.765625 2.269531 -10.144531 2.90625 -10.40625 C 3.550781 -10.675781 4.296875 -10.8125 5.140625 -10.8125 C 5.910156 -10.8125 6.664062 -10.703125 7.40625 -10.484375 C 8.15625 -10.265625 8.8125 -9.976562 9.375 -9.625 Z M 8.328125 -7.40625 "/></g></g></g><g fill="#ffffff" fill-opacity="1"><g transform="translate(114.598693, 21.455278)"><g><path d="M 5.6875 -10.609375 C 7.039062 -10.609375 8.085938 -10.28125 8.828125 -9.625 C 9.578125 -8.976562 9.953125 -8.0625 9.953125 -6.875 C 9.953125 -5.625 9.578125 -4.65625 8.828125 -3.96875 C 8.085938 -3.28125 7.039062 -2.9375 5.6875 -2.9375 L 3.796875 -2.9375 L 3.796875 0 L 1.03125 0 L 1.03125 -10.609375 Z M 5.546875 -5.140625 C 6.109375 -5.140625 6.546875 -5.28125 6.859375 -5.5625 C 7.171875 -5.84375 7.328125 -6.253906 7.328125 -6.796875 C 7.328125 -7.304688 7.171875 -7.695312 6.859375 -7.96875 C 6.546875 -8.25 6.109375 -8.390625 5.546875 -8.390625 L 3.796875 -8.390625 L 3.796875 -5.140625 Z M 5.546875 -5.140625 "/></g></g></g><g fill="#ffffff" fill-opacity="1"><g transform="translate(124.878472, 21.455278)"><g><path d="M 1.03125 0 L 1.03125 -10.609375 L 3.796875 -10.609375 L 3.796875 -6.28125 L 8.078125 -6.28125 L 8.078125 -10.609375 L 10.84375 -10.609375 L 10.84375 0 L 8.078125 0 L 8.078125 -4.0625 L 3.796875 -4.0625 L 3.796875 0 Z M 1.03125 0 "/></g></g></g><g fill="#ffffff" fill-opacity="1"><g transform="translate(136.745573, 21.455278)"><g><path d="M 1.03125 0 L 1.03125 -10.609375 L 9.390625 -10.609375 L 9.390625 -8.390625 L 3.796875 -8.390625 L 3.796875 -6.40625 L 8.84375 -6.40625 L 8.84375 -4.21875 L 3.796875 -4.203125 L 3.796875 -2.203125 L 9.546875 -2.203125 L 9.546875 0 Z M 1.03125 0 "/></g></g></g><g fill="#ffffff" fill-opacity="1"><g transform="translate(146.949769, 21.455278)"><g><path d="M 10.53125 0 L 7.390625 0 L 5.859375 -2.9375 L 3.796875 -2.9375 L 3.796875 0 L 1.03125 0 L 1.03125 -10.609375 L 5.796875 -10.609375 C 7.191406 -10.609375 8.273438 -10.28125 9.046875 -9.625 C 9.816406 -8.976562 10.203125 -8.0625 10.203125 -6.875 C 10.203125 -6.082031 10.039062 -5.394531 9.71875 -4.8125 C 9.394531 -4.238281 8.925781 -3.789062 8.3125 -3.46875 Z M 3.796875 -8.390625 L 3.796875 -5.140625 L 5.8125 -5.140625 C 6.375 -5.140625 6.804688 -5.28125 7.109375 -5.5625 C 7.421875 -5.84375 7.578125 -6.253906 7.578125 -6.796875 C 7.578125 -7.304688 7.421875 -7.695312 7.109375 -7.96875 C 6.804688 -8.25 6.375 -8.390625 5.8125 -8.390625 Z M 3.796875 -8.390625 "/></g></g></g><g fill="#ffffff" fill-opacity="1"><g transform="translate(157.894709, 21.455278)"><g><path d="M 1.03125 0 L 1.03125 -10.609375 L 9.390625 -10.609375 L 9.390625 -8.390625 L 3.796875 -8.390625 L 3.796875 -6.40625 L 8.84375 -6.40625 L 8.84375 -4.21875 L 3.796875 -4.203125 L 3.796875 -2.203125 L 9.546875 -2.203125 L 9.546875 0 Z M 1.03125 0 "/></g></g></g><g fill="#00adef" fill-opacity="1"><g transform="translate(47.432423, 35.371095)"><g><path d="M 2.671875 -6.34375 C 3.359375 -6.34375 3.957031 -6.210938 4.46875 -5.953125 C 4.976562 -5.691406 5.363281 -5.320312 5.625 -4.84375 C 5.894531 -4.363281 6.03125 -3.800781 6.03125 -3.15625 C 6.03125 -2.507812 5.894531 -1.945312 5.625 -1.46875 C 5.363281 -0.988281 4.976562 -0.625 4.46875 -0.375 C 3.957031 -0.125 3.359375 0 2.671875 0 L 0.703125 0 L 0.703125 -6.34375 Z M 2.671875 -0.6875 C 3.492188 -0.6875 4.117188 -0.898438 4.546875 -1.328125 C 4.972656 -1.765625 5.1875 -2.375 5.1875 -3.15625 C 5.1875 -3.945312 4.96875 -4.5625 4.53125 -5 C 4.101562 -5.445312 3.484375 -5.671875 2.671875 -5.671875 L 1.53125 -5.671875 L 1.53125 -0.6875 Z M 2.671875 -0.6875 "/></g></g></g><g fill="#00adef" fill-opacity="1"><g transform="translate(55.225629, 35.371095)"><g><path d="M 4.453125 -1.40625 L 1.6875 -1.40625 L 1.171875 0 L 0.296875 0 L 2.59375 -6.296875 L 3.546875 -6.296875 L 5.828125 0 L 4.953125 0 Z M 4.203125 -2.078125 L 3.0625 -5.28125 L 1.921875 -2.078125 Z M 4.203125 -2.078125 "/></g></g></g><g fill="#00adef" fill-opacity="1"><g transform="translate(62.718758, 35.371095)"><g><path d="M 2.703125 0.0625 C 2.285156 0.0625 1.910156 -0.0078125 1.578125 -0.15625 C 1.253906 -0.300781 1 -0.503906 0.8125 -0.765625 C 0.625 -1.035156 0.523438 -1.34375 0.515625 -1.6875 L 1.40625 -1.6875 C 1.4375 -1.394531 1.554688 -1.144531 1.765625 -0.9375 C 1.984375 -0.738281 2.296875 -0.640625 2.703125 -0.640625 C 3.097656 -0.640625 3.410156 -0.738281 3.640625 -0.9375 C 3.867188 -1.132812 3.984375 -1.382812 3.984375 -1.6875 C 3.984375 -1.9375 3.914062 -2.132812 3.78125 -2.28125 C 3.644531 -2.4375 3.476562 -2.550781 3.28125 -2.625 C 3.082031 -2.707031 2.8125 -2.789062 2.46875 -2.875 C 2.050781 -2.988281 1.71875 -3.097656 1.46875 -3.203125 C 1.21875 -3.316406 1.003906 -3.488281 0.828125 -3.71875 C 0.648438 -3.957031 0.5625 -4.273438 0.5625 -4.671875 C 0.5625 -5.015625 0.644531 -5.316406 0.8125 -5.578125 C 0.988281 -5.847656 1.234375 -6.054688 1.546875 -6.203125 C 1.867188 -6.347656 2.238281 -6.421875 2.65625 -6.421875 C 3.25 -6.421875 3.734375 -6.269531 4.109375 -5.96875 C 4.492188 -5.675781 4.707031 -5.285156 4.75 -4.796875 L 3.84375 -4.796875 C 3.8125 -5.035156 3.679688 -5.242188 3.453125 -5.421875 C 3.234375 -5.609375 2.941406 -5.703125 2.578125 -5.703125 C 2.234375 -5.703125 1.953125 -5.613281 1.734375 -5.4375 C 1.515625 -5.257812 1.40625 -5.007812 1.40625 -4.6875 C 1.40625 -4.457031 1.46875 -4.269531 1.59375 -4.125 C 1.726562 -3.976562 1.890625 -3.867188 2.078125 -3.796875 C 2.265625 -3.722656 2.53125 -3.632812 2.875 -3.53125 C 3.300781 -3.414062 3.640625 -3.300781 3.890625 -3.1875 C 4.148438 -3.082031 4.367188 -2.910156 4.546875 -2.671875 C 4.722656 -2.441406 4.8125 -2.128906 4.8125 -1.734375 C 4.8125 -1.421875 4.726562 -1.128906 4.5625 -0.859375 C 4.40625 -0.585938 4.164062 -0.363281 3.84375 -0.1875 C 3.519531 -0.0195312 3.140625 0.0625 2.703125 0.0625 Z M 2.703125 0.0625 "/></g></g></g><g fill="#00adef" fill-opacity="1"><g transform="translate(69.420794, 35.371095)"><g><path d="M 5.578125 -6.34375 L 5.578125 0 L 4.75 0 L 4.75 -2.875 L 1.53125 -2.875 L 1.53125 0 L 0.703125 0 L 0.703125 -6.34375 L 1.53125 -6.34375 L 1.53125 -3.5625 L 4.75 -3.5625 L 4.75 -6.34375 Z M 5.578125 -6.34375 "/></g></g></g><g fill="#00adef" fill-opacity="1"><g transform="translate(77.077599, 35.371095)"><g><path d="M 3.875 -3.265625 C 4.101562 -3.222656 4.3125 -3.125 4.5 -2.96875 C 4.695312 -2.820312 4.847656 -2.632812 4.953125 -2.40625 C 5.066406 -2.1875 5.125 -1.953125 5.125 -1.703125 C 5.125 -1.378906 5.039062 -1.085938 4.875 -0.828125 C 4.71875 -0.578125 4.484375 -0.375 4.171875 -0.21875 C 3.859375 -0.0703125 3.488281 0 3.0625 0 L 0.703125 0 L 0.703125 -6.34375 L 2.96875 -6.34375 C 3.40625 -6.34375 3.773438 -6.269531 4.078125 -6.125 C 4.378906 -5.976562 4.601562 -5.785156 4.75 -5.546875 C 4.90625 -5.304688 4.984375 -5.035156 4.984375 -4.734375 C 4.984375 -4.359375 4.878906 -4.046875 4.671875 -3.796875 C 4.472656 -3.546875 4.207031 -3.367188 3.875 -3.265625 Z M 1.53125 -3.59375 L 2.921875 -3.59375 C 3.304688 -3.59375 3.601562 -3.679688 3.8125 -3.859375 C 4.03125 -4.046875 4.140625 -4.300781 4.140625 -4.625 C 4.140625 -4.945312 4.03125 -5.195312 3.8125 -5.375 C 3.601562 -5.5625 3.300781 -5.65625 2.90625 -5.65625 L 1.53125 -5.65625 Z M 2.984375 -0.6875 C 3.398438 -0.6875 3.722656 -0.78125 3.953125 -0.96875 C 4.179688 -1.164062 4.296875 -1.4375 4.296875 -1.78125 C 4.296875 -2.132812 4.175781 -2.410156 3.9375 -2.609375 C 3.695312 -2.816406 3.375 -2.921875 2.96875 -2.921875 L 1.53125 -2.921875 L 1.53125 -0.6875 Z M 2.984375 -0.6875 "/></g></g></g><g fill="#00adef" fill-opacity="1"><g transform="translate(84.016057, 35.371095)"><g><path d="M 3.578125 0.0625 C 2.984375 0.0625 2.441406 -0.0703125 1.953125 -0.34375 C 1.472656 -0.625 1.09375 -1.007812 0.8125 -1.5 C 0.53125 -2 0.390625 -2.554688 0.390625 -3.171875 C 0.390625 -3.785156 0.53125 -4.335938 0.8125 -4.828125 C 1.09375 -5.328125 1.472656 -5.710938 1.953125 -5.984375 C 2.441406 -6.265625 2.984375 -6.40625 3.578125 -6.40625 C 4.171875 -6.40625 4.707031 -6.265625 5.1875 -5.984375 C 5.675781 -5.710938 6.054688 -5.332031 6.328125 -4.84375 C 6.609375 -4.351562 6.75 -3.796875 6.75 -3.171875 C 6.75 -2.546875 6.609375 -1.988281 6.328125 -1.5 C 6.054688 -1.007812 5.675781 -0.625 5.1875 -0.34375 C 4.707031 -0.0703125 4.171875 0.0625 3.578125 0.0625 Z M 3.578125 -0.65625 C 4.015625 -0.65625 4.410156 -0.753906 4.765625 -0.953125 C 5.117188 -1.160156 5.394531 -1.457031 5.59375 -1.84375 C 5.800781 -2.226562 5.90625 -2.671875 5.90625 -3.171875 C 5.90625 -3.679688 5.800781 -4.125 5.59375 -4.5 C 5.394531 -4.882812 5.117188 -5.175781 4.765625 -5.375 C 4.421875 -5.582031 4.023438 -5.6875 3.578125 -5.6875 C 3.128906 -5.6875 2.726562 -5.582031 2.375 -5.375 C 2.019531 -5.175781 1.738281 -4.882812 1.53125 -4.5 C 1.332031 -4.125 1.234375 -3.679688 1.234375 -3.171875 C 1.234375 -2.671875 1.332031 -2.226562 1.53125 -1.84375 C 1.738281 -1.457031 2.019531 -1.160156 2.375 -0.953125 C 2.726562 -0.753906 3.128906 -0.65625 3.578125 -0.65625 Z M 3.578125 -0.65625 "/></g></g></g><g fill="#00adef" fill-opacity="1"><g transform="translate(92.527608, 35.371095)"><g><path d="M 4.453125 -1.40625 L 1.6875 -1.40625 L 1.171875 0 L 0.296875 0 L 2.59375 -6.296875 L 3.546875 -6.296875 L 5.828125 0 L 4.953125 0 Z M 4.203125 -2.078125 L 3.0625 -5.28125 L 1.921875 -2.078125 Z M 4.203125 -2.078125 "/></g></g></g><g fill="#00adef" fill-opacity="1"><g transform="translate(100.020735, 35.371095)"><g><path d="M 4.03125 0 L 2.53125 -2.59375 L 1.53125 -2.59375 L 1.53125 0 L 0.703125 0 L 0.703125 -6.34375 L 2.75 -6.34375 C 3.226562 -6.34375 3.628906 -6.257812 3.953125 -6.09375 C 4.285156 -5.925781 4.535156 -5.703125 4.703125 -5.421875 C 4.867188 -5.148438 4.953125 -4.832031 4.953125 -4.46875 C 4.953125 -4.03125 4.820312 -3.644531 4.5625 -3.3125 C 4.3125 -2.976562 3.9375 -2.757812 3.4375 -2.65625 L 5.03125 0 Z M 1.53125 -3.25 L 2.75 -3.25 C 3.195312 -3.25 3.53125 -3.359375 3.75 -3.578125 C 3.976562 -3.804688 4.09375 -4.101562 4.09375 -4.46875 C 4.09375 -4.84375 3.976562 -5.132812 3.75 -5.34375 C 3.53125 -5.550781 3.195312 -5.65625 2.75 -5.65625 L 1.53125 -5.65625 Z M 1.53125 -3.25 "/></g></g></g><g fill="#00adef" fill-opacity="1"><g transform="translate(106.913727, 35.371095)"><g><path d="M 2.671875 -6.34375 C 3.359375 -6.34375 3.957031 -6.210938 4.46875 -5.953125 C 4.976562 -5.691406 5.363281 -5.320312 5.625 -4.84375 C 5.894531 -4.363281 6.03125 -3.800781 6.03125 -3.15625 C 6.03125 -2.507812 5.894531 -1.945312 5.625 -1.46875 C 5.363281 -0.988281 4.976562 -0.625 4.46875 -0.375 C 3.957031 -0.125 3.359375 0 2.671875 0 L 0.703125 0 L 0.703125 -6.34375 Z M 2.671875 -0.6875 C 3.492188 -0.6875 4.117188 -0.898438 4.546875 -1.328125 C 4.972656 -1.765625 5.1875 -2.375 5.1875 -3.15625 C 5.1875 -3.945312 4.96875 -4.5625 4.53125 -5 C 4.101562 -5.445312 3.484375 -5.671875 2.671875 -5.671875 L 1.53125 -5.671875 L 1.53125 -0.6875 Z M 2.671875 -0.6875 "/></g></g></g></svg>